<?xml version="1.0" encoding="utf-8"?>
<!-- Generator: Adobe Illustrator 22.1.0, SVG Export Plug-In . SVG Version: 6.00 Build 0)  -->
<svg version="1.1" id="Capa_1" xmlns="http://www.w3.org/2000/svg" xmlns:xlink="http://www.w3.org/1999/xlink" x="0px" y="0px"
	 viewBox="0 0 512 512" style="enable-background:new 0 0 512 512;" xml:space="preserve">
<style type="text/css">
	.st0{fill:#EFEFF1;}
</style>
<path class="st0" d="M493.7,0H128c-10.1,0-18.3,8.2-18.3,18.3v91.4H18.3C8.2,109.7,0,117.9,0,128v365.7C0,503.8,8.2,512,18.3,512
	H384c10.1,0,18.3-8.2,18.3-18.3v-91.4h91.4c10.1,0,18.3-8.2,18.3-18.3V18.3C512,8.2,503.8,0,493.7,0z M365.7,475.4H36.6V146.3h329.1
	L365.7,475.4L365.7,475.4z M475.4,365.7h-73.1V128c0-10.1-8.2-18.3-18.3-18.3H146.3V36.6h329.1L475.4,365.7L475.4,365.7z"/>
</svg>
